<svg id="visual" viewBox="0 0 900 600" width="900" height="600" xmlns="http://www.w3.org/2000/svg" xmlns:xlink="http://www.w3.org/1999/xlink" version="1.1"><rect x="0" y="0" width="900" height="600" fill="#ffffff"></rect><path d="M567 0L662 0L662 46L512 46L512 92L673 92L673 138L540 138L540 185L540 185L540 231L677 231L677 277L521 277L521 323L595 323L595 369L664 369L664 415L506 415L506 462L595 462L595 508L689 508L689 554L482 554L482 600L0 600L0 554L0 554L0 508L0 508L0 462L0 462L0 415L0 415L0 369L0 369L0 323L0 323L0 277L0 277L0 231L0 231L0 185L0 185L0 138L0 138L0 92L0 92L0 46L0 46L0 0L0 0Z" fill="#dfd7e4"></path><path d="M427 0L458 0L458 46L482 46L482 92L422 92L422 138L441 138L441 185L365 185L365 231L470 231L470 277L402 277L402 323L543 323L543 369L340 369L340 415L423 415L423 462L437 462L437 508L357 508L357 554L344 554L344 600L0 600L0 554L0 554L0 508L0 508L0 462L0 462L0 415L0 415L0 369L0 369L0 323L0 323L0 277L0 277L0 231L0 231L0 185L0 185L0 138L0 138L0 92L0 92L0 46L0 46L0 0L0 0Z" fill="#cec9d1"></path><path d="M317 0L360 0L360 46L242 46L242 92L378 92L378 138L375 138L375 185L278 185L278 231L282 231L282 277L214 277L214 323L235 323L235 369L389 369L389 415L232 415L232 462L314 462L314 508L364 508L364 554L208 554L208 600L0 600L0 554L0 554L0 508L0 508L0 462L0 462L0 415L0 415L0 369L0 369L0 323L0 323L0 277L0 277L0 231L0 231L0 185L0 185L0 138L0 138L0 92L0 92L0 46L0 46L0 0L0 0Z" fill="#bebbbf"></path><path d="M218 0L146 0L146 46L235 46L235 92L195 92L195 138L210 138L210 185L116 185L116 231L168 231L168 277L188 277L188 323L207 323L207 369L127 369L127 415L92 415L92 462L171 462L171 508L228 508L228 554L213 554L213 600L0 600L0 554L0 554L0 508L0 508L0 462L0 462L0 415L0 415L0 369L0 369L0 323L0 323L0 277L0 277L0 231L0 231L0 185L0 185L0 138L0 138L0 92L0 92L0 46L0 46L0 0L0 0Z" fill="#adadad"></path></svg>